<svg width="21" height="32" viewBox="0 0 21 32" fill="none" xmlns="http://www.w3.org/2000/svg">
<path d="M9.712 31.624C6.672 31.624 4.416 31.144 2.944 30.184C1.504 29.192 0.784 27.352 0.784 24.664C0.784 24.12 0.816 23.464 0.88 22.696C0.976 21.928 1.104 21 1.264 19.912C1.52 18.344 1.712 16.952 1.84 15.736C1.968 14.488 2.032 13.128 2.032 11.656C2.032 10.696 2 9.768 1.936 8.872C1.904 7.976 1.824 7.128 1.696 6.328C1.216 6.424 0.896 6.472 0.736 6.472C0.48 6.472 0.304 6.424 0.208 6.328C0.112 6.2 0.0640001 5.976 0.0640001 5.656C0.0640001 4.984 0.144 4.328 0.304 3.688C0.464 3.016 0.688 2.472 0.976 2.056C1.52 1.288 2.352 0.839998 3.472 0.711998C4.336 0.615999 5.392 0.52 6.64 0.423999C7.92 0.327998 9.216 0.263998 10.528 0.231998C11.872 0.167999 13.072 0.136 14.128 0.136C17.072 0.136 18.816 0.199999 19.36 0.327997C20.192 0.455997 20.608 0.903998 20.608 1.672C20.608 2.632 20.272 3.512 19.6 4.312C19.248 4.792 18.896 5.144 18.544 5.368C18.192 5.56 17.696 5.64 17.056 5.608C15.648 5.512 14.416 5.448 13.36 5.416C12.304 5.384 11.568 5.368 11.152 5.368C10.416 5.368 9.648 5.384 8.848 5.416C8.08 5.448 7.296 5.496 6.496 5.56C6.496 6.68 6.448 7.88 6.352 9.16C6.256 10.44 6.128 11.784 5.968 13.192C7.44 13.096 9.104 13.032 10.96 13C12.816 12.936 14.464 12.904 15.904 12.904C16.544 12.904 16.976 12.968 17.2 13.096C17.456 13.224 17.584 13.56 17.584 14.104C17.584 14.616 17.44 15.192 17.152 15.832C16.896 16.44 16.544 16.968 16.096 17.416C15.904 17.608 15.696 17.768 15.472 17.896C15.248 17.992 14.944 18.024 14.56 17.992C13.184 17.928 11.616 17.88 9.856 17.848C8.128 17.816 6.608 17.816 5.296 17.848C5.168 18.584 5.072 19.256 5.008 19.864C4.944 20.472 4.912 21.016 4.912 21.496C4.912 23.256 5.36 24.488 6.256 25.192C7.152 25.896 8.624 26.248 10.672 26.248C11.92 26.248 13.12 26.136 14.272 25.912C15.456 25.688 16.656 25.272 17.872 24.664C18.32 24.408 18.656 24.28 18.88 24.28C19.232 24.28 19.568 24.536 19.888 25.048C20.24 25.528 20.416 26.056 20.416 26.632C20.416 27.336 20.144 28.008 19.6 28.648C19.088 29.256 18.4 29.784 17.536 30.232C16.544 30.68 15.36 31.016 13.984 31.24C12.608 31.496 11.184 31.624 9.712 31.624Z" fill="#025191"/>
</svg>
